# xmcd
#
# Track frame offsets: 
#        150
#        2352
#        21115
#        24299
#        37507
#        40078
#        51597
#        62151
#        77185
#        83654
#        114027
#        118535
#        138260
#        146068
#        163727
#        166876
#        179449
#        187597
#        207682
#        215039
#
# Disc length: 3094 seconds
#
# Revision: 0
# Processed by: cddbd v1.5.2PL0 Copyright (c) Steve Scherf et al.
# Submitted via: ExactAudioCopy v1.0b1
#
DISCID=010c1414
DTITLE=ミドリカワ書房 - みんなのうた
DYEAR=2004
DGENRE=J-ROCK
TTITLE0=～乙女の1024色～
TTITLE1=顔
TTITLE2=～温かいキヌカツギ～
TTITLE3=笑って俺について来い
TTITLE4=～サムシング・フレッシュ～
TTITLE5=だまって俺がついて行く
TTITLE6=～Takanori Makes 朝帰り～
TTITLE7=それぞれに真実がある
TTITLE8=～同級生フォーエバ（“万引き is 窃盗”チューン）～
TTITLE9=馬鹿兄弟
TTITLE10=～深い夜に割り増す～
TTITLE11=保健室の先生
TTITLE12=～花粉からにょきにょき～
TTITLE13=雄と雌の日々
TTITLE14=～多摩濡らす低気圧～
TTITLE15=ユミコ
TTITLE16=～茂木淳一のしらばっくれ大名～P.N.カミキリムシ～
TTITLE17=居るんだ
TTITLE18=～NRH国際カンファレンス～
TTITLE19=チューをしよう
EXTD=
EXTT0=
EXTT1=
EXTT2=
EXTT3=
EXTT4=
EXTT5=
EXTT6=
EXTT7=
EXTT8=
EXTT9=
EXTT10=
EXTT11=
EXTT12=
EXTT13=
EXTT14=
EXTT15=
EXTT16=
EXTT17=
EXTT18=
EXTT19=
PLAYORDER=
